<?xml version="1.0" encoding="UTF-8" standalone="no"?>
<!DOCTYPE svg PUBLIC "-//W3C//DTD SVG 1.1//EN"
 "http://www.w3.org/Graphics/SVG/1.1/DTD/svg11.dtd">
<!-- Generated by graphviz version 2.38.0 (20140413.2041)
 -->
<!-- Title: Mise à jour des données de la BATO Pages: 1 -->
<svg width="780pt" height="476pt"
 viewBox="0.00 0.00 780.22 476.00" xmlns="http://www.w3.org/2000/svg" xmlns:xlink="http://www.w3.org/1999/xlink">
<g id="graph0" class="graph" transform="scale(1 1) rotate(0) translate(4 472)">
<title>Mise à jour des données de la BATO</title>
<polygon fill="white" stroke="none" points="-4,4 -4,-472 776.224,-472 776.224,4 -4,4"/>
<!-- mise à jour GTFS -->
<g id="node1" class="node"><title>mise à jour GTFS</title>
<ellipse fill="none" stroke="black" cx="166.385" cy="-234" rx="74.9875" ry="18"/>
<text text-anchor="middle" x="166.385" y="-230.3" font-family="Times,serif" font-size="14.00">mise à jour GTFS</text>
</g>
<!-- check du nombre d&#39;arrêts extraits des GTFS -->
<g id="node3" class="node"><title>check du nombre d&#39;arrêts extraits des GTFS</title>
<ellipse fill="none" stroke="black" cx="166.385" cy="-162" rx="166.271" ry="18"/>
<text text-anchor="middle" x="166.385" y="-158.3" font-family="Times,serif" font-size="14.00">check du nombre d&#39;arrêts extraits des GTFS</text>
</g>
<!-- mise à jour GTFS&#45;&gt;check du nombre d&#39;arrêts extraits des GTFS -->
<g id="edge1" class="edge"><title>mise à jour GTFS&#45;&gt;check du nombre d&#39;arrêts extraits des GTFS</title>
<path fill="none" stroke="black" d="M166.385,-215.697C166.385,-207.983 166.385,-198.712 166.385,-190.112"/>
<polygon fill="black" stroke="black" points="169.885,-190.104 166.385,-180.104 162.885,-190.104 169.885,-190.104"/>
</g>
<!-- téléchargement du fichier OSM France -->
<g id="node2" class="node"><title>téléchargement du fichier OSM France</title>
<ellipse fill="none" stroke="black" cx="413.385" cy="-450" rx="149.473" ry="18"/>
<text text-anchor="middle" x="413.385" y="-446.3" font-family="Times,serif" font-size="14.00">téléchargement du fichier OSM France</text>
</g>
<!-- filtre OSM sur tram stop -->
<g id="node4" class="node"><title>filtre OSM sur tram stop</title>
<ellipse fill="none" stroke="black" cx="201.385" cy="-378" rx="98.5829" ry="18"/>
<text text-anchor="middle" x="201.385" y="-374.3" font-family="Times,serif" font-size="14.00">filtre OSM sur tram stop</text>
</g>
<!-- téléchargement du fichier OSM France&#45;&gt;filtre OSM sur tram stop -->
<g id="edge2" class="edge"><title>téléchargement du fichier OSM France&#45;&gt;filtre OSM sur tram stop</title>
<path fill="none" stroke="black" d="M364.748,-432.941C332.482,-422.287 290.068,-408.282 256.545,-397.213"/>
<polygon fill="black" stroke="black" points="257.488,-393.839 246.895,-394.027 255.293,-400.486 257.488,-393.839"/>
</g>
<!-- filtre OSM sur bus stop -->
<g id="node5" class="node"><title>filtre OSM sur bus stop</title>
<ellipse fill="none" stroke="black" cx="413.385" cy="-378" rx="94.7833" ry="18"/>
<text text-anchor="middle" x="413.385" y="-374.3" font-family="Times,serif" font-size="14.00">filtre OSM sur bus stop</text>
</g>
<!-- téléchargement du fichier OSM France&#45;&gt;filtre OSM sur bus stop -->
<g id="edge3" class="edge"><title>téléchargement du fichier OSM France&#45;&gt;filtre OSM sur bus stop</title>
<path fill="none" stroke="black" d="M413.385,-431.697C413.385,-423.983 413.385,-414.712 413.385,-406.112"/>
<polygon fill="black" stroke="black" points="416.885,-406.104 413.385,-396.104 409.885,-406.104 416.885,-406.104"/>
</g>
<!-- filtre OSM sur public_transport -->
<g id="node6" class="node"><title>filtre OSM sur public_transport</title>
<ellipse fill="none" stroke="black" cx="649.385" cy="-378" rx="122.678" ry="18"/>
<text text-anchor="middle" x="649.385" y="-374.3" font-family="Times,serif" font-size="14.00">filtre OSM sur public_transport</text>
</g>
<!-- téléchargement du fichier OSM France&#45;&gt;filtre OSM sur public_transport -->
<g id="edge4" class="edge"><title>téléchargement du fichier OSM France&#45;&gt;filtre OSM sur public_transport</title>
<path fill="none" stroke="black" d="M466.937,-433.116C502.891,-422.452 550.36,-408.372 587.866,-397.247"/>
<polygon fill="black" stroke="black" points="589.075,-400.539 597.667,-394.34 587.085,-393.828 589.075,-400.539"/>
</g>
<!-- fusion (prise en compte des résultats OSM) -->
<g id="node10" class="node"><title>fusion (prise en compte des résultats OSM)</title>
<ellipse fill="none" stroke="black" cx="289.385" cy="-90" rx="165.171" ry="18"/>
<text text-anchor="middle" x="289.385" y="-86.3" font-family="Times,serif" font-size="14.00">fusion (prise en compte des résultats OSM)</text>
</g>
<!-- check du nombre d&#39;arrêts extraits des GTFS&#45;&gt;fusion (prise en compte des résultats OSM) -->
<g id="edge10" class="edge"><title>check du nombre d&#39;arrêts extraits des GTFS&#45;&gt;fusion (prise en compte des résultats OSM)</title>
<path fill="none" stroke="black" d="M195.847,-144.233C212.309,-134.865 233.02,-123.078 250.766,-112.978"/>
<polygon fill="black" stroke="black" points="252.778,-115.861 259.738,-107.873 249.315,-109.777 252.778,-115.861"/>
</g>
<!-- fusion des filtres OSM -->
<g id="node7" class="node"><title>fusion des filtres OSM</title>
<ellipse fill="none" stroke="black" cx="413.385" cy="-306" rx="91.784" ry="18"/>
<text text-anchor="middle" x="413.385" y="-302.3" font-family="Times,serif" font-size="14.00">fusion des filtres OSM</text>
</g>
<!-- filtre OSM sur tram stop&#45;&gt;fusion des filtres OSM -->
<g id="edge5" class="edge"><title>filtre OSM sur tram stop&#45;&gt;fusion des filtres OSM</title>
<path fill="none" stroke="black" d="M246.865,-361.983C279.783,-351.114 324.411,-336.378 359.181,-324.898"/>
<polygon fill="black" stroke="black" points="360.31,-328.211 368.709,-321.752 358.116,-321.564 360.31,-328.211"/>
</g>
<!-- filtre OSM sur bus stop&#45;&gt;fusion des filtres OSM -->
<g id="edge6" class="edge"><title>filtre OSM sur bus stop&#45;&gt;fusion des filtres OSM</title>
<path fill="none" stroke="black" d="M413.385,-359.697C413.385,-351.983 413.385,-342.712 413.385,-334.112"/>
<polygon fill="black" stroke="black" points="416.885,-334.104 413.385,-324.104 409.885,-334.104 416.885,-334.104"/>
</g>
<!-- filtre OSM sur public_transport&#45;&gt;fusion des filtres OSM -->
<g id="edge7" class="edge"><title>filtre OSM sur public_transport&#45;&gt;fusion des filtres OSM</title>
<path fill="none" stroke="black" d="M597.594,-361.638C560.477,-350.629 510.438,-335.787 471.88,-324.35"/>
<polygon fill="black" stroke="black" points="472.418,-320.859 461.835,-321.371 470.427,-327.57 472.418,-320.859"/>
</g>
<!-- extraction OSM en csv -->
<g id="node8" class="node"><title>extraction OSM en csv</title>
<ellipse fill="none" stroke="black" cx="413.385" cy="-234" rx="92.8835" ry="18"/>
<text text-anchor="middle" x="413.385" y="-230.3" font-family="Times,serif" font-size="14.00">extraction OSM en csv</text>
</g>
<!-- fusion des filtres OSM&#45;&gt;extraction OSM en csv -->
<g id="edge8" class="edge"><title>fusion des filtres OSM&#45;&gt;extraction OSM en csv</title>
<path fill="none" stroke="black" d="M413.385,-287.697C413.385,-279.983 413.385,-270.712 413.385,-262.112"/>
<polygon fill="black" stroke="black" points="416.885,-262.104 413.385,-252.104 409.885,-262.104 416.885,-262.104"/>
</g>
<!-- clean up OSM -->
<g id="node9" class="node"><title>clean up OSM</title>
<ellipse fill="none" stroke="black" cx="413.385" cy="-162" rx="62.2891" ry="18"/>
<text text-anchor="middle" x="413.385" y="-158.3" font-family="Times,serif" font-size="14.00">clean up OSM</text>
</g>
<!-- extraction OSM en csv&#45;&gt;clean up OSM -->
<g id="edge9" class="edge"><title>extraction OSM en csv&#45;&gt;clean up OSM</title>
<path fill="none" stroke="black" d="M413.385,-215.697C413.385,-207.983 413.385,-198.712 413.385,-190.112"/>
<polygon fill="black" stroke="black" points="416.885,-190.104 413.385,-180.104 409.885,-190.104 416.885,-190.104"/>
</g>
<!-- clean up OSM&#45;&gt;fusion (prise en compte des résultats OSM) -->
<g id="edge11" class="edge"><title>clean up OSM&#45;&gt;fusion (prise en compte des résultats OSM)</title>
<path fill="none" stroke="black" d="M386.173,-145.638C369.141,-136.023 346.93,-123.485 328.082,-112.845"/>
<polygon fill="black" stroke="black" points="329.566,-109.663 319.137,-107.795 326.125,-115.759 329.566,-109.663"/>
</g>
<!-- fusion (prise en compte des résultats GTFS) -->
<g id="node11" class="node"><title>fusion (prise en compte des résultats GTFS)</title>
<ellipse fill="none" stroke="black" cx="289.385" cy="-18" rx="167.07" ry="18"/>
<text text-anchor="middle" x="289.385" y="-14.3" font-family="Times,serif" font-size="14.00">fusion (prise en compte des résultats GTFS)</text>
</g>
<!-- fusion (prise en compte des résultats OSM)&#45;&gt;fusion (prise en compte des résultats GTFS) -->
<g id="edge12" class="edge"><title>fusion (prise en compte des résultats OSM)&#45;&gt;fusion (prise en compte des résultats GTFS)</title>
<path fill="none" stroke="black" d="M289.385,-71.6966C289.385,-63.9827 289.385,-54.7125 289.385,-46.1124"/>
<polygon fill="black" stroke="black" points="292.885,-46.1043 289.385,-36.1043 285.885,-46.1044 292.885,-46.1043"/>
</g>
</g>
</svg>
